<?xml version="1.0" encoding="UTF-8"?>
<svg width="1024px" height="768px" viewBox="0 0 1024 768" version="1.1" xmlns="http://www.w3.org/2000/svg" xmlns:xlink="http://www.w3.org/1999/xlink">
    <!-- Generator: Sketch 49.3 (51167) - http://www.bohemiancoding.com/sketch -->
    <title>Background Copy</title>
    <desc>Created with Sketch.</desc>
    <defs>
        <polygon id="path-1" points="0.26445505 0.374043776 733.529122 0.374043776 733.529122 457.81655 0.26445505 457.81655"></polygon>
        <polygon id="path-3" points="0 0.520939654 3167.86755 0.520939654 3167.86755 364.0875 0 364.0875"></polygon>
    </defs>
    <g id="Page-1" stroke="none" stroke-width="1" fill="none" fill-rule="evenodd">
        <g id="Avatar">
            <g id="Background-Copy" transform="translate(-560.000000, -18.000000)">
                <rect id="Rectangle-3" fill="#F0F8D6" x="560" y="0" width="1024" height="768"></rect>
                <g id="Page-1" transform="translate(0.000000, 73.000000)">
                    <path d="M1223.57433,188.449312 C1249.88128,167.96956 1269.33535,137.533495 1298.34735,121.120555 C1330.66448,102.838032 1371.66406,102.592297 1407.14605,101.111012 C1412.59012,100.884036 1418.24513,100.773361 1423.23449,103.19444 C1427.61134,105.318512 1431.05672,109.190238 1434.56375,112.781213 C1457.55086,136.316077 1484.40922,143.901958 1505.80146,169.518375 C1527.92327,196.007056 1548.72394,223.787562 1571.49897,249.622827 C1581.60097,261.082934 1591.81043,272.696235 1599.07898,286.534277 C1603.64021,295.218148 1607.01433,304.726761 1612.61336,312.632784 C1636.28762,346.062058 1682.52257,372.102414 1719.82001,383.329918 C1755.55933,394.088463 1803.18103,420.292017 1840,420.292017 L1551.97929,420.292017 L1197.06606,420.292017 L1071.86843,420.292017 C1063.01405,420.292017 1045.50606,424.134979 1037.29925,420.292017 C995.443982,400.783322 1057.48742,333.067517 1070.76842,314.330416 C1084.68172,294.700417 1098.70982,274.935983 1115.76254,258.610582 C1143.97484,231.600419 1179.01909,215.300655 1212.13366,196.271549 C1215.88161,194.117464 1219.69687,191.468158 1223.57433,188.449312" id="Fill-1" fill="#BDD8B2"></path>
                    <path d="M1223.41534,188.386713 C1253.64928,164.724043 1281.62053,119.249782 1319.98471,112.614913 C1354.83616,106.586811 1388.28615,103.729477 1420.2612,121.684389 C1426.16603,125.000253 1432.64106,129.840573 1433.04737,137.180197 C1433.30902,141.903686 1430.88978,146.246532 1428.45868,150.131476 C1421.97235,160.496771 1414.7169,170.266605 1406.79011,179.309699 C1403.6091,182.938369 1400.12577,186.884869 1399.67481,191.926189 C1399.10687,198.276518 1403.58763,203.787046 1408.2933,207.443353 C1436.05432,229.015 1482.29727,220.127052 1498.26332,253.331547 C1491.18814,272.161434 1470.22822,278.068936 1452.13905,281.554394 C1411.1844,289.444882 1370.22976,297.335998 1329.27511,305.227114 C1337.0708,321.606692 1356.6609,324.68701 1373.32034,325.391136 C1423.05623,327.493466 1472.91249,326.056947 1522.48336,321.094771 C1537.47347,319.594184 1552.92922,317.820991 1567.29714,322.802011 C1581.66506,327.782403 1594.77505,341.506902 1594.99713,358.23446 C1595.20623,373.966443 1583.94245,387.616824 1570.88898,393.705225 C1521.67243,416.661884 1446.17092,409.326658 1393.41396,413.302052 C1328.01266,418.230309 1262.48703,421.284246 1196.9275,421.284246 L1071.82969,421.284246 C1062.98233,421.284246 1045.48822,425.144693 1037.28791,421.284246 C995.465826,401.686791 1057.46008,333.662895 1070.73055,314.840545 C1084.63282,295.121234 1098.64981,275.266877 1115.689,258.8672 C1143.87894,231.734147 1178.89541,215.360222 1211.98373,196.244538 C1215.72871,194.080653 1219.54094,191.419293 1223.41534,188.386713" id="Fill-3" fill="#C9DDC0"></path>
                    <path d="M628.49119,138.847511 C644.447169,116.946043 663.908342,98.5749873 682.112167,78.946473 C712.729466,45.9328577 728.254645,10.3234619 773.657075,2.95109397 C789.682593,0.349044894 807.036692,2.83073902 820.014388,13.5768068 C835.853904,26.6929896 842.443668,49.2620513 854.73672,66.4295575 C872.187494,90.8001825 901.833515,85.7164393 917.522082,103.85368 C925.760982,113.378647 926.472197,128.876855 935.064444,138.011921 C950.116988,154.01537 985.486085,152.044557 1005.07729,161.133237 C1026.16046,170.913958 1048.925,179.094334 1069.14431,190.883478 C1091.14392,203.71131 1092.94796,216.410638 1107.79133,234.735934 C1138.76593,272.973707 1190.86497,300.679794 1232.02329,322.759914 C1267.31324,325.942425 1302.45167,331.190402 1337.24354,338.474384 C1366.19079,344.535385 1394.96616,352.016198 1424.28202,355.232558 C1452.81033,358.362414 1481.56422,357.421514 1510.20052,358.896489 C1572.14181,362.087149 1633.59237,376.690844 1691.27203,401.927147 C1708.59051,409.503868 1727.80349,421.038511 1731,441.375365 C1717.10191,449.020412 1701.33589,451 1685.82032,451 C1479.45432,451 1273.89848,444.299614 1066.91681,444.299614 L388.537527,444.299614 C385.317837,444.299614 333.499207,442.03669 333,444.298987 C339.638384,414.198338 326.876653,379.667749 340.626622,352.689433 C348.007316,338.207347 361.808166,328.961328 376.107094,323.925852 C390.405456,318.891003 405.494748,317.471191 420.304189,314.808964 C464.577043,306.848612 508.939222,286.496714 545.768627,257.950023 C583.508818,228.6975 600.256292,177.603687 628.49119,138.847511" id="Fill-5" fill="#C7E2BC"></path>
                    <g id="Group-9" transform="translate(333.000000, 0.000000)">
                        <mask id="mask-2" fill="white">
                            <use xlink:href="#path-1"></use>
                        </mask>
                        <g id="Clip-8"></g>
                        <path d="M296.052307,138.379594 C312.02374,116.489575 331.50445,98.128223 349.730514,78.5050219 C371.227036,55.3606717 388.738341,26.2266088 414.851084,8.77373871 C442.19697,-9.50428317 494.041026,1.16504925 478.45159,49.4868687 C474.972871,60.2702312 467.087889,69.1977852 465.475013,80.5074405 C462.834424,99.0285595 477.503106,114.447057 490.755852,126.121358 C510.906614,143.871208 531.05681,161.621057 551.207571,179.370907 C559.807878,186.947016 569.196514,196.236083 569.203871,208.412869 C569.232167,255.68085 509.000591,255.531733 479.605504,263.907933 C465.473881,267.934073 433.420096,277.058986 432.382196,298.544261 C430.857604,330.109922 499.056221,341.834973 519.556156,346.275881 C563.502779,355.794888 608.131903,361.451282 652.887794,363.174264 C673.73577,363.97686 733.699666,362.145487 733.528757,397.936527 C733.474995,409.168491 727.119132,419.492601 718.89007,426.063115 C706.365664,436.063304 688.795504,439.863263 673.883476,443.37752 C624.278205,455.065605 567.087891,463.819607 517.15382,452.670346 C471.873886,442.559886 426.764861,443.680765 380.183308,443.680765 L188.286733,443.680765 L0.26445505,443.680765 C6.90950362,413.594363 -5.86503917,379.080836 7.89873416,352.115851 C15.2868375,337.640921 29.1015437,328.399471 43.4148267,323.366483 C57.7275437,318.334122 72.8319847,316.915011 87.6562947,314.2541 C131.973596,306.297681 176.380313,285.95584 213.246694,257.423254 C251.024774,228.185186 267.789063,177.11662 296.052307,138.379594" id="Fill-7" fill="#DBEDC3" mask="url(#mask-2)"></path>
                    </g>
                    <path d="M1592.11315,380.749831 C1566.84529,378.848248 1541.54125,376.945412 1516.21912,377.41016 C1444.47715,378.72799 1374.95619,403.198032 1304.9847,418.38627 C1068.60735,469.694565 827.48665,429.024738 605.438811,329.05696 C519.606437,290.414612 428.269278,261.416722 335.589556,251.123997 C274.387961,244.328154 76.9200251,235.655157 0.206895829,253.918121 L0.206895829,366.162885 C0.206895829,366.730353 0.132277661,367.244582 0,367.708078 L0,547.4628 L731.893429,547.4628 C846.069966,547.4628 959.571548,542.22593 1073.57454,551.980625 C1075.58414,552.15287 1077.59262,552.335137 1079.60052,552.525546 C1103.1222,554.764102 1172.53745,611.128373 1195.96755,614.277635 C1254.35514,622.125736 1329.67196,620.785894 1388.42133,623.856237 C1418.12897,625.408319 1529.13766,613.87239 1558.87639,614.277635 C1603.17867,614.880805 1503.55438,575.623893 1547.75095,571.901525 C1603.17077,567.233376 1659.40856,562.375445 1711.61019,541.235052 C1748.90401,526.131372 1783.27359,503.033651 1820.763,488.536898 C1862.26653,472.489316 1909.29011,465.853818 1941,432.12264 C1929.23746,408.523217 1900.91422,403.989106 1876.63957,402.162058 C1781.79762,395.024858 1686.9551,387.887031 1592.11315,380.749831 Z" id="Fill-10" fill="#A3C699"></path>
                    <g id="Group-14" transform="translate(0.000000, 358.000000)">
                        <mask id="mask-4" fill="white">
                            <use xlink:href="#path-3"></use>
                        </mask>
                        <g id="Clip-13"></g>
                        <path d="M3008.49069,201.135032 C3017.86524,187.075991 3031.47848,173.887375 3031.15795,156.408669 C2941.78462,139.075346 2853.12867,184.316195 2763.06397,196.48524 C2726.64553,201.405121 2691.82863,201.878874 2656.0343,191.713876 C2664.13802,182.938177 2673.50465,175.600028 2683.6712,170.060383 C2574.84836,172.751874 2475.87832,200.581068 2372.55879,234.460005 C2290.19361,261.468279 2208.63118,261.979631 2123.52425,259.696721 C1982.26107,255.906701 1841.35008,243.518326 1700.26215,235.546001 C1588.22327,229.214262 1475.91133,225.478762 1363.77521,230.998354 C1315.27497,233.385915 1261.99332,246.724302 1215.03411,235.650652 C1162.29912,223.214652 1069.05064,242.949322 1015.23817,235.546001 C941.993714,225.742585 915.054357,188.117494 847.432481,178.047749 C750.699942,163.643419 660.596233,121.115994 566.219342,94.9612266 C495.723428,71.8100241 420.836182,58.9648166 348.453261,43.4600784 C233.735933,18.8882454 117.289321,2.15024688 0.337886081,0.520939654 L0.337886081,56.757732 C0.337886081,57.4896669 0.213517773,58.13199 -0.000169593148,58.6897144 L-0.000169593148,363.010465 C-0.000169593148,363.051198 251.219856,363.260501 265.658451,363.274914 C536.430306,363.544377 807.202725,363.813212 1077.97515,364.083301 C1179.72199,364.184193 1281.10364,362.467154 1382.7182,361.509623 C1421.56747,361.143029 1460.45122,360.887353 1499.40281,360.887353 L3140.77956,360.887353 C3149.85902,360.887353 3158.79205,362.122493 3167.86755,361.827964 C3142.31438,321.11659 3101.81158,275.75793 3059.38503,257.003977 C3034.46275,245.98798 2976.00117,249.858838 3008.49069,201.135032 Z" id="Fill-12" fill="#6FB35E" mask="url(#mask-4)"></path>
                    </g>
                </g>
            </g>
        </g>
    </g>
</svg>