<?xml version="1.0" encoding="UTF-8"?>
<svg width="184px" height="221px" viewBox="0 0 184 221" version="1.1" xmlns="http://www.w3.org/2000/svg" xmlns:xlink="http://www.w3.org/1999/xlink">
    <!-- Generator: Sketch 49.3 (51167) - http://www.bohemiancoding.com/sketch -->
    <title>hedgehog</title>
    <desc>Created with Sketch.</desc>
    <defs>
        <polygon id="path-1" points="0.000365451112 0.989623377 183.687656 0.989623377 183.687656 221.160419 0.000365451112 221.160419"></polygon>
    </defs>
    <g id="Page-1" stroke="none" stroke-width="1" fill="none" fill-rule="evenodd">
        <g id="Avatar" transform="translate(-421.000000, -117.000000)">
            <g id="Group-2" transform="translate(245.000000, 116.000000)">
                <g id="hedgehog" transform="translate(176.000000, 0.000000)">
                    <g id="Group-3">
                        <mask id="mask-2" fill="white">
                            <use xlink:href="#path-1"></use>
                        </mask>
                        <g id="Clip-2"></g>
                        <path d="M183.230359,160.805614 C180.513172,157.90951 176.437391,167.466653 175.367859,163.267303 C174.298328,159.065056 185.629578,135.204056 182.796766,133.234705 C181.091297,132.076264 176.148328,137.636783 172.419422,142.296614 C172.433875,142.154705 172.433875,142.0099 172.419422,141.865095 C172.101453,141.285874 171.318094,141.430679 170.222547,142.038861 C174.818641,128.687822 185.048563,97.9601597 182.449891,94.7454844 C179.848328,91.5308091 168.719422,103.984056 165.626453,107.72003 L165.626453,106.416783 C168.517078,99.2054844 177.188953,77.1950948 175.685828,71.5187312 C171.783484,73.4591208 164.759266,82.4370429 164.759266,82.4370429 C164.759266,82.4370429 171.318094,47.3941857 164.759266,40.4724974 C162.05075,44.3040429 159.55325,48.2774974 157.272547,52.3754844 C157.272547,52.3754844 151.314969,26.3105494 144.033484,17.6222377 C139.957703,23.4144455 140.738172,32.6530169 140.738172,32.6530169 C140.738172,32.6530169 132.788953,10.7874325 129.464734,9.48418571 C127.672547,8.7311987 126.863172,12.2065234 126.574109,15.5660039 C125.932391,21.6767831 123.906063,27.5616662 120.648328,32.768861 C119.905438,33.9736403 119.035359,35.0886403 118.046766,36.0993805 C117.699891,30.7995104 117.699891,24.5149649 117.295203,20.4024974 C116.890516,16.2900299 116.627469,6.73288701 113.999891,6.73288701 C111.369422,6.73288701 110.675672,14.2627571 108.710047,14.2627571 C106.744422,14.2627571 106.050672,4.70561429 103.388406,5.37171818 C100.729031,6.03782208 100.095984,16.9561338 96.7717656,16.9561338 C93.4475469,16.9561338 94.6616094,-0.217762338 90.6725469,1.05652338 C87.6084844,2.09912078 80.6131719,12.9015883 77.5780156,17.7960039 C77.1444219,16.9271727 76.7397344,16.1741857 76.4217656,15.5949649 C76.4217656,10.9901597 76.0459844,4.67665325 72.6350469,5.05314675 C67.3452031,5.63236753 57.5748906,20.865874 57.5748906,20.865874 C57.5748906,20.865874 57.5748906,7.89132857 54.2795781,9.28145844 C50.9842656,10.6715883 43.0350469,32.4502896 43.0350469,32.4502896 C43.0350469,32.4502896 43.7866094,23.1248351 39.7108281,17.4195104 C32.4264531,26.3105494 26.4717656,52.1727571 26.4717656,52.1727571 C24.1910625,48.0747701 21.6906719,44.1013156 18.9850469,40.2697701 C12.3655156,47.1045753 18.9850469,82.2343156 18.9850469,82.2343156 C18.9850469,82.2343156 11.9030156,73.4591208 7.94285938,71.5187312 C6.29520313,77.310939 15.0248906,99.2054844 18.0022344,106.416783 L18.0022344,107.72003 C15.0537969,103.984056 4.15614063,91.2411987 1.32332813,94.7454844 C-1.50948437,98.2497701 8.95457813,128.687822 13.5506719,142.038861 C12.4811406,141.430679 11.6717656,141.285874 11.3537969,141.865095 C11.3364531,142.0099 11.3364531,142.154705 11.3537969,142.296614 C7.53817188,137.636783 2.59520313,132.076264 0.918640625,133.234705 C-1.97198437,135.204056 9.38817188,159.065056 8.31864063,163.267303 C7.24910938,167.466653 3.17332813,157.996394 0.456140625,160.805614 C-2.26104687,163.614835 8.05848438,221.160419 8.05848438,221.160419 L175.714734,221.160419 C175.714734,221.160419 185.947547,163.614835 183.230359,160.805614 Z" id="Fill-1" fill="#BCAAA4" mask="url(#mask-2)"></path>
                    </g>
                    <path d="M165.889896,222 C165.715983,219.941351 166.208735,217.766722 165.889896,215.621087 C165.573955,213.475453 165.04932,211.474794 164.84932,209.358155 C164.643524,207.241516 164.701495,205.124876 164.501496,203.008237 C164.2957,200.891598 163.426138,198.861944 163.22324,196.745305 C163.020343,194.628666 163.078313,192.512026 162.84643,190.395387 C162.614547,188.278748 162.585562,186.191104 162.353679,184.074465 C162.121796,181.957825 161.950782,179.870181 161.718899,177.753542 C161.484117,175.636903 160.933395,173.578254 160.672527,171.461614 C160.411658,169.344975 160.385571,167.228336 160.121804,165.111697 C159.860936,162.995058 159.45514,160.936409 159.165287,158.819769 C158.875433,156.700231 158.614564,154.615486 158.327609,152.527842 C158.034857,150.440198 157.426164,148.352554 157.078339,146.264909 C156.730514,144.177265 156.933412,142.031631 156.530515,139.972982 C156.121821,137.914333 156.06385,135.739703 155.716026,133.652059 C155.368201,131.564415 154.614581,129.505766 154.237771,127.447117 C153.86386,125.388468 153.194297,123.300824 152.788502,121.242175 C152.382707,119.183526 151.689956,117.124876 151.252277,115.066227 C150.817496,113.007578 151.252277,110.716969 150.643584,108.687315 C150.034891,106.657661 149.716051,104.483031 149.194314,102.482372 C148.675476,100.481713 147.342148,98.5390445 146.759542,96.5383855 C146.179835,94.5377265 146.324761,92.1891269 145.687083,90.2174629 C145.052303,88.245799 143.803033,86.3031301 143.110282,84.4184514 C142.411735,82.5337727 141.774056,80.3011532 140.991451,78.4164745 C140.211744,76.5317957 139.42624,74.3571664 138.530592,72.6174629 C137.629146,70.8777595 136.472629,68.7611203 135.397272,67.0794069 C134.220465,65.2875124 132.890036,63.6 131.426274,62.0342669 C130.014686,60.4221417 128.472664,58.9288962 126.820497,57.569028 C125.10746,56.2729489 123.30457,55.0986491 121.426317,54.060626 C119.559658,52.9704119 117.623434,52.0019769 115.62924,51.1611203 C113.687219,50.3492586 111.658242,49.7113674 109.60028,49.0734761 C107.542318,48.4355848 105.484355,47.9426689 103.397408,47.5657331 C101.31046,47.1887974 99.1655418,46.985832 97.0496088,46.7828666 C94.9336757,46.5799012 92.7887573,46 90.6438389,46 C88.4989205,46 86.3829875,46.5799012 84.2670544,46.7828666 C82.1511214,46.985832 80.0931591,47.6817133 78.0062115,48.0876442 C75.8989741,48.3833937 73.8062294,48.8009226 71.7453686,49.3344316 C69.7685654,50.0970016 67.8323417,50.9697529 65.9482918,51.9439868 C63.9598944,52.6427677 62.0265693,53.4749259 60.151215,54.4375618 C58.2729621,55.4842834 56.4700712,56.6672817 54.7599336,57.9749588 C53.2990702,59.55229 51.9918294,61.2571993 50.8469067,63.078089 C49.5947382,64.8351895 48.4614096,66.6763756 47.4556168,68.5871499 C46.1599702,70.2920593 44.9715694,72.0723558 43.8904146,73.9222405 C43.1628815,75.9866886 42.5454928,78.0859308 42.03535,80.214168 C41.3976716,82.2728171 40.9339054,84.4184514 40.4411539,86.5350906 C39.9484024,88.6517298 39.8904316,90.8553542 39.542607,93.0009885 C39.1947824,95.1466227 38.0933378,97.2052718 37.803484,99.3799012 C37.5136301,101.55453 37.803484,103.758155 37.5716009,105.932784 C37.3397178,108.107414 36.9339224,110.253048 36.7889955,112.427677 C36.6440686,114.602306 37.049864,116.832026 36.7889955,118.98056 C36.5281271,121.126194 35.9774048,123.329819 35.8324779,125.446458 C35.6875509,127.563097 35.4556679,129.824712 35.2817556,131.941351 C35.1078433,134.05799 34.789004,136.319605 34.5281356,138.407249 C34.2672671,140.494893 33.803501,142.785502 33.3977056,144.815157 C32.9919102,146.844811 32.5861148,149.13542 32.1803195,151.194069 C31.7745241,153.252718 31.2527872,155.485338 30.8759772,157.572982 C30.4991672,159.660626 30.4411964,161.951236 30.0643864,164.03888 C29.6875765,166.123624 29.1078688,168.298254 28.7600442,170.388797 C28.4122196,172.476442 27.8614973,174.651071 27.5136727,176.76771 C27.165848,178.884349 27.0499065,181.058979 26.7310673,183.204613 C26.4122281,185.350247 26.180345,187.495881 25.9194765,189.641516 C25.6586081,191.78715 25.2238273,193.874794 24.9919443,196.078418 C24.7600612,198.282043 25.1368712,200.398682 24.9919443,202.602306 C24.8470173,204.805931 24.2093389,206.661614 24.064412,208.981219 C23.919485,211.300824 24.064412,213.272488 24.064412,215.505107 L24.064412,222" id="Fill-4" fill="#D7CCC8"></path>
                    <path d="M51.0175082,91.4977912 C51.0693544,90.0562101 51.4121151,88.6406295 52.0256279,87.3377176 C52.6391407,86.0376946 53.500363,84.8705628 54.5603288,83.899879 C55.6289357,82.9407509 56.8703631,82.1954044 58.2183631,81.7042845 C59.5663631,81.1813864 61.0094145,80.9444933 62.4524658,81.0109389 C63.8926368,81.0744956 65.309765,81.4067237 66.6289616,81.9931786 C67.9164745,82.6374122 69.0772523,83.5069831 70.0565685,84.5643352 C71.0387651,85.633243 71.7934147,86.8899319 72.2744318,88.2621784 C72.7957737,89.6142023 73.0406028,91.0586723 72.9945173,92.5089202 C72.890825,93.9562791 72.5077395,95.3660819 71.871184,96.6689938 C71.2576711,97.9690168 70.3993292,99.1390375 69.336483,100.106832 C68.2880386,101.106406 67.0552522,101.892197 65.7072522,102.417984 C64.3477308,102.89466 62.9075598,103.082441 61.4731495,102.966883 C60.0329785,102.969772 58.6043289,102.695323 57.2678503,102.15798 C55.9659357,101.510857 54.7965169,100.629731 53.8114399,99.5579338 C52.8465254,98.4745813 52.1120382,97.2063367 51.6511835,95.8312012 C51.150004,94.44451 50.9339783,92.9711506 51.0175082,91.4977912" id="Fill-6" fill="#FFFFFF"></path>
                    <path d="M68.9985267,92.4880898 C69.0187093,93.4790802 68.8312998,94.4642922 68.4507143,95.3772746 C68.0787785,96.2844786 67.51655,97.1021179 66.8072771,97.775298 C66.1326029,98.4773699 65.3166508,99.0292042 64.4142019,99.3932415 C63.5059866,99.7948382 62.5228076,100.002859 61.5309788,99.9999703 C60.5449165,99.9970811 59.5675039,99.8092841 58.6477557,99.4510252 C57.7510733,99.0609852 56.9380044,98.5033726 56.2546805,97.8041899 C55.5598237,97.1136747 55.0091281,96.2873678 54.6400755,95.3772746 C53.7866415,93.5455314 53.7866415,91.4306482 54.6400755,89.598905 C55.0033616,88.6945902 55.5540573,87.8769508 56.2546805,87.2008816 C56.920705,86.4785854 57.7251243,85.9007484 58.6189234,85.4962626 C59.5415548,85.1553388 60.5189675,84.9906552 61.5021466,85.0051011 C62.4853257,84.9675417 63.4685047,85.1380036 64.3853697,85.4962626 C66.2190996,86.2647857 67.6664776,87.7440483 68.3930498,89.598905 C68.7938179,90.5089982 69.0014099,91.4942102 68.9985267,92.4880898" id="Fill-8" fill="#000000"></path>
                    <path d="M113.016473,91.4987572 C113.079843,90.0600505 113.425501,88.6473446 114.027521,87.3386416 C115.280528,84.7125687 117.515779,82.6902903 120.249352,81.7051518 C121.585894,81.1793594 123.020372,80.9424639 124.45485,81.0117992 C125.895088,81.0638006 127.315164,81.3960321 128.628662,81.9940487 C129.924876,82.623844 131.088589,83.4963126 132.05643,84.5652312 C133.038673,85.6341498 133.793358,86.8908514 134.274398,88.2631117 C134.795764,89.6151493 135.040605,91.0596339 134.994517,92.5098964 C134.905222,93.9601589 134.522119,95.3728648 133.871131,96.6700119 C133.26047,97.970048 132.399207,99.1400805 131.336311,100.107885 C130.293578,101.101691 129.072255,101.884601 127.735713,102.419061 C126.370367,102.89574 124.918606,103.080634 123.472607,102.967965 C122.032368,102.970854 120.606531,102.696402 119.267109,102.159053 C117.968014,101.511924 116.79566,100.630789 115.813417,99.5589811 C114.857098,98.4698397 114.125457,97.2044712 113.653058,95.8322109 C113.151855,94.4455057 112.93582,92.9721314 113.016473,91.4987572" id="Fill-10" fill="#FFFFFF"></path>
                    <path d="M131.998526,92.4871314 C132.018716,93.4782477 131.831235,94.463585 131.453387,95.3766834 C131.089961,96.2811132 130.53617,97.0988564 129.835277,97.7750116 C129.145922,98.4713936 128.321003,99.0232981 127.412438,99.3931607 C126.506758,99.7948085 125.523201,100.002856 124.528106,99.9999667 C123.53878,100.002856 122.563876,99.8179249 121.643774,99.4509518 C120.73521,99.0695309 119.913175,98.5089578 119.220936,97.8039071 C118.534465,97.1046355 117.989326,96.2811132 117.60571,95.3766834 C117.219209,94.463585 117.014422,93.4811373 117,92.4871314 C117.008653,91.4902359 117.224978,90.5048987 117.637437,89.5975793 C117.997979,88.6931496 118.548886,87.8754063 119.249779,87.1992512 C119.921828,86.4826423 120.726557,85.9047318 121.614931,85.4944155 C122.540802,85.1534483 123.51859,84.9887439 124.499263,85.0031916 C125.48282,84.9742961 126.463493,85.1418901 127.383595,85.4944155 C128.286391,85.8758363 129.099772,86.4364094 129.77759,87.1414601 C130.466946,87.8465108 131.006316,88.6815914 131.363973,89.5975793 C131.776432,90.5048987 131.992757,91.4902359 131.998526,92.4871314" id="Fill-12" fill="#000000"></path>
                    <path d="M113.825252,127.798868 C112.914851,128.755762 111.86818,129.577598 110.72293,130.241389 C109.603775,130.942536 108.409236,131.511499 107.15671,131.933912 C105.869391,132.258623 104.561777,132.488507 103.242565,132.626438 C101.934951,132.824713 100.618639,132.95115 99.299427,133 L95.3562888,133 C94.0515739,133 92.6888718,132.767242 91.4131506,132.626438 C90.1374294,132.48276 88.7747273,132.626438 87.4410188,132.367818 C86.1160084,132.106325 84.8112935,131.770119 83.5268742,131.362075 C82.2337569,131.054604 80.9725325,130.629318 79.757698,130.097711 C78.5457629,129.540242 77.4121107,128.824727 76.3944331,127.971282 C75.4086486,127.094848 74.6084235,126.028759 74.0459464,124.839108 C73.5733497,123.936813 73.2486207,122.968425 73.0891555,121.965555 C72.9702815,121.011535 72.9702815,120.046021 73.0891555,119.092002 C73.1152498,117.810397 73.2428219,116.531666 73.4660731,115.270176 C73.718318,114.017306 74.1271287,112.801793 74.683807,111.649498 C75.2781771,110.511571 76.0523079,109.474218 76.9743064,108.574796 C77.8963049,107.683995 78.9284793,106.908135 80.0476347,106.275953 C81.1464945,105.571933 82.3091404,104.974234 83.5268742,104.49435 C84.7620043,104.123662 86.0203293,103.836307 87.2960504,103.632284 C88.5485767,103.347803 89.8155998,103.13516 91.0942203,103.000103 L94.9793712,103.000103 C96.1594133,102.997229 97.3394553,103.0547 98.5165981,103.172516 C99.7024389,103.255849 100.882481,103.411021 102.050926,103.632284 C103.204873,103.867916 104.341425,104.184007 105.443184,104.580557 C106.568138,104.977107 107.652501,105.468485 108.690474,106.046069 C109.67046,106.704113 110.566364,107.477099 111.357891,108.344912 C112.224802,109.14376 112.993134,110.040308 113.648391,111.017317 C114.895118,113.01731 115.593866,115.304658 115.680847,117.655225 C115.898299,118.810393 116.005576,119.982803 115.999777,121.158086 C115.872205,122.324749 115.61996,123.471297 115.245942,124.580489 C114.970502,125.727036 114.489207,126.818987 113.825252,127.798868" id="Fill-14" fill="#BCAAA4"></path>
                    <path d="M94.8665008,118.626049 C93.8216598,119.043051 92.6779825,119.113037 91.590783,118.827259 C90.5402942,118.535649 89.5716983,117.984506 88.7668884,117.22632 C87.9564306,116.444805 87.3944756,115.427086 87.1572684,114.310219 C86.8212249,113.143779 87.0301931,111.881108 87.7220473,110.898382 C88.4844989,110.116867 89.4785098,109.624046 90.545942,109.498653 C91.4750033,109.271197 92.4181841,109.122476 93.3698366,109.061238 C94.3101936,108.979587 95.2561983,108.979587 96.1937313,109.061238 C97.1482077,109.192463 98.0942124,109.39659 99.017626,109.673619 C100.373095,110.169356 100.344856,110.227678 100.79668,111.860695 C101.067773,112.811344 101.067773,113.823231 100.79668,114.776796 C100.466284,116.027803 99.6473545,117.083431 98.5375639,117.692896 C96.7867492,118.739776 96.7302713,118.421921 94.8665008,118.626049" id="Fill-16" fill="#6D4C41"></path>
                    <path d="M65,112.72 C65.027,112.48 65.027,112.24 65,112 L65,112.72 Z" id="Fill-18" fill="#C4B5B0"></path>
                    <polygon id="Fill-20" fill="#C4B5B0" points="65 111 65 113.22 65 111.54 65 112.23 65 111.81 65 111.66"></polygon>
                    <path d="M63,110 C63,110 63,110.03 63,110" id="Fill-22" fill="#C4B5B0"></path>
                    <path d="M61,109.21 L61,109 L61,109.21 Z" id="Fill-24" fill="#C4B5B0"></path>
                    <path d="" id="Fill-26" fill="#C4B5B0"></path>
                    <path d="M63.0225,109.3 L63.0225,109 C62.9925,109.33 62.9925,109.24 63.0225,109.3" id="Fill-28" fill="#C4B5B0"></path>
                    <path d="" id="Fill-30" fill="#C4B5B0"></path>
                    <path d="M64,109 L64,110.2 L64,109 Z" id="Fill-32" fill="#C4B5B0"></path>
                    <path d="" id="Fill-34" fill="#C4B5B0"></path>
                    <polygon id="Fill-36" fill="#C4B5B0" points="50 111.51 50 111.48 50 111"></polygon>
                    <path d="M56,108 C56,108.72 56,108.96 56.21,109.77 C56.15,109.41 56.12,108.45 56,108" id="Fill-38" fill="#C4B5B0"></path>
                    <path d="M65,113 C65,113 65,113.03 65,113" id="Fill-40" fill="#C4B5B0"></path>
                    <path d="" id="Fill-42" fill="#C4B5B0"></path>
                    <path d="M59,108 L59,108.39 L59,108 Z" id="Fill-44" fill="#C4B5B0"></path>
                    <path d="" id="Fill-46" fill="#C4B5B0"></path>
                    <path d="M59.0133333,109.08 C59.0133333,109.08 59.0133333,108.9 59.0133333,109.08 C59.0133333,109.08 58.9833333,108.96 59.0133333,109.08" id="Fill-48" fill="#C4B5B0"></path>
                    <path d="M59,109 L59,109.15 L59,109 Z" id="Fill-50" fill="#C4B5B0"></path>
                    <path d="M52.0475338,115.75 L52.0475338,115 C52.0175338,115.6 51.9575338,115.81 52.0475338,115.75" id="Fill-52" fill="#C4B5B0"></path>
                    <path d="M65,113 L65,113.36 L65,113 Z" id="Fill-54" fill="#C4B5B0"></path>
                    <path d="M55,115 C55,115 55,115.09 55,115" id="Fill-56" fill="#C4B5B0"></path>
                    <polygon id="Fill-58" fill="#C4B5B0" points="60 115.6 60 115 60 115.24"></polygon>
                    <path d="M51.8297568,108.896552 L51.8297568,109.097701 C51.8297568,109.298851 51.8297568,109.097701 51.8297568,109.097701 L51.8297568,108.781609 L51.8297568,108.896552 Z M52.316166,114.5 C52.2989986,114.318966 52.2989986,114.135057 52.316166,113.954023 C52.3476395,114.100575 52.3848355,114.244253 52.4306152,114.385057 L52.316166,114.5 Z M51,117 L51,115.333333 L51,116.655172 L51,115.448276 L51,115.908046 C51,115.048851 51.1430615,115.908046 51.1430615,114.787356 L51.1430615,115.048851 L51.1430615,113.609195 C51.1430615,113.235632 51.1430615,112.91954 51.1430615,113.609195 L51.1430615,114.068966 L51.1430615,113.781609 L51.1430615,114.844828 C51.1430615,114.528736 51.1430615,113.695402 51.286123,113.982759 L51.286123,115.189655 L51.286123,114.818966 L51.286123,116.33908 C51.286123,116.626437 51.286123,115.850575 51.4577969,116.140805 L51.4577969,114.787356 C51.4577969,114.241379 51.6866953,117.229885 51.7153076,115.936782 L51.7153076,114.704023 L51.7153076,115.793103 L51.7153076,114.933908 L51.7153076,115.448276 L51.7153076,114.818966 L51.7153076,115.793103 C51.7153076,115.62069 51.7153076,114.902299 51.944206,114.729885 C51.9155937,115.025862 51.9155937,115.324713 51.944206,115.62069 C51.944206,115.132184 52.2017167,115.62069 52.3733906,116.281609 L52.3733906,115.448276 L52.3733906,115.994253 L52.3733906,115.132184 C52.4077253,115.37069 52.4077253,115.612069 52.3733906,115.850575 C52.3733906,115.132184 52.3733906,114.298851 52.6309013,115.189655 L52.6309013,115.448276 L52.6309013,114.5 L52.6309013,114.643678 C52.8025751,115.017241 52.888412,114.212644 53.1173104,115.477011 C53.1173104,114.270115 53.3175966,115.994253 53.1173104,114.327586 C53.2031474,114.887931 53.3175966,115.445402 53.4606581,115.994253 L53.4606581,114.758621 L53.4606581,115.652299 L53.4606581,114.729885 L53.4606581,115.767241 L53.4606581,115.537356 L53.4606581,114.902299 C53.4606581,114.672414 53.6609442,115.505747 53.7181688,115.936782 L53.7181688,115.189655 C53.7296137,115.422414 53.7296137,115.652299 53.7181688,115.87931 C53.7181688,114.988506 53.7181688,116.827586 53.7181688,115.87931 L53.7181688,115.16092 C53.7181688,115.706897 53.8898426,115.706897 53.9184549,115.477011 L53.9184549,116.08046 C54.0615165,116.08046 54.1187411,115.767241 54.2331903,115.767241 C54.1874106,115.287356 54.1874106,114.807471 54.2331903,114.327586 L54.2331903,115.247126 C54.2131617,114.893678 54.2131617,114.537356 54.2331903,114.183908 C54.2732475,114.643678 54.2732475,115.103448 54.2331903,115.563218 L54.2331903,115.218391 L54.2331903,116.022989 C54.2331903,115.422414 54.4334764,116.942529 54.2331903,116.022989 L54.2331903,116.281609 C54.2331903,116.281609 54.3762518,115.965517 54.4620887,115.908046 L54.4620887,114.614943 C54.4620887,114.873563 54.7195994,115.505747 54.776824,115.422414 C54.8340486,115.333333 54.776824,114.729885 54.776824,114.241379 C54.8626609,114.640805 54.9198856,115.043103 54.9484979,115.448276 C54.9484979,115.448276 54.9484979,115.275862 55.1201717,114.672414 C55.1087268,114.445402 55.1087268,114.212644 55.1201717,113.982759 L55.1201717,114.643678 C55.1201717,113.522989 55.6638054,116.741379 55.6065808,115.189655 L55.6065808,114.471264 L55.6065808,115.477011 C55.6065808,114.241379 55.806867,115.477011 55.806867,114.787356 C56.1502146,116.942529 56.0643777,114.614943 56.3218884,115.965517 L56.3218884,115.477011 L56.3218884,115.87931 L56.3218884,115.132184 C56.3218884,114.844828 56.8655222,115.821839 57.1516452,116.255747 C57.4377682,116.683908 56.8941345,113.637931 57.1516452,114.818966 L57.1516452,115.767241 C57.1516452,114.614943 57.4949928,115.767241 57.5522175,114.787356 C57.5779685,114.956897 57.5779685,115.135057 57.5522175,115.304598 C57.5522175,115.965517 57.695279,115.304598 57.5522175,114.758621 C57.5808298,115.017241 57.5808298,115.278736 57.5522175,115.537356 L57.5522175,115.333333 C57.5636624,115.428161 57.5636624,115.525862 57.5522175,115.62069 L57.5522175,114.902299 C57.5522175,115.275862 57.5522175,114.528736 57.7238913,114.902299 C57.7238913,114.011494 57.8669528,115.333333 57.7238913,114.068966 C57.8669528,115.362069 57.9241774,115.103448 57.8955651,114.5 C57.8955651,114.873563 57.8955651,114.902299 58.0386266,115.448276 C58.1015737,115.135057 58.1015737,114.813218 58.0386266,114.5 C58.267525,116.051724 58.0386266,113.235632 58.3247496,115.218391 C58.3505007,114.715517 58.4191702,114.218391 58.5250358,113.724138 L58.5250358,115.218391 L58.5250358,113.867816 C58.5565093,114.126437 58.5565093,114.385057 58.5250358,114.643678 C58.5250358,114.097701 58.7539342,114.643678 58.7825465,114.04023 L58.7825465,114.385057 L58.7825465,113.982759 L58.7825465,114.385057 L58.7825465,112.172414 C58.7825465,113.83908 58.925608,112.574713 59.0686695,114.704023 L59.0686695,113.925287 C59.0886981,114.183908 59.0886981,114.445402 59.0686695,114.704023 C59.0515021,114.393678 59.0515021,114.08908 59.0686695,113.781609 L59.0686695,114.5 L59.0686695,113.609195 L59.0686695,114.011494 C59.0686695,114.011494 59.0686695,112.517241 59.2403433,113.034483 C59.2403433,114.298851 59.2403433,113.465517 59.4120172,114.528736 L59.4120172,114.183908 L59.4120172,113.695402 L59.4120172,113.264368 L59.4120172,113.695402 L59.4120172,113.494253 L59.4120172,113.091954 L59.4120172,112.028736 L59.4120172,112.66092 L59.4120172,112.229885 L59.4120172,113.637931 L59.4120172,112.431034 L59.4120172,113.321839 L59.4120172,112.603448 L59.4120172,113.408046 L59.4120172,112.632184 L59.4120172,112.890805 C59.4120172,113.206897 59.4120172,112.431034 59.6409156,112.890805 L59.6409156,114.068966 C59.6409156,113.867816 59.6409156,112.775862 59.8984263,113.005747 C59.8984263,111.482759 59.8984263,113.752874 59.8984263,113.005747 L59.8984263,113.666667 C59.8984263,113.925287 59.8984263,113.293103 60.0987124,112.804598 L60.0987124,113.206897 C60.0987124,113.551724 60.0987124,113.408046 60.2703863,113.58046 C60.2961373,113.284483 60.2961373,112.985632 60.2703863,112.689655 C60.527897,114.902299 60.4706724,111.482759 60.6995708,113.321839 C60.6852647,113.436782 60.6852647,113.551724 60.6995708,113.666667 L60.6995708,113.293103 L60.6995708,112.373563 C60.6709585,112.143678 60.6709585,111.913793 60.6995708,111.683908 C60.6680973,112.163793 60.6680973,112.643678 60.6995708,113.12069 L60.6995708,112.488506 L60.6995708,111.942529 L60.6995708,112.287356 L60.6995708,111.741379 L60.6995708,112.747126 L60.6995708,112.028736 L60.6995708,112.45977 L60.6995708,113.293103 L60.6995708,113.695402 L60.6995708,113.465517 L60.6995708,111.770115 C60.6623748,112.295977 60.6623748,112.824713 60.6995708,113.350575 C60.713877,113.609195 60.713877,113.867816 60.6995708,114.126437 L60.6995708,113.637931 L60.6995708,114.356322 C60.7224607,114.08046 60.7224607,113.801724 60.6995708,113.522989 C60.6995708,112.574713 60.8998569,114.672414 60.9570815,113.522989 L60.9570815,111.568966 C60.9885551,111.902299 60.9885551,112.241379 60.9570815,112.574713 C60.9570815,112.977011 60.9570815,112.91954 60.9570815,112.574713 L60.9570815,113.350575 L60.9570815,112.747126 L60.9570815,113.867816 L60.9570815,112.833333 C60.9885551,113.186782 60.9885551,113.543103 60.9570815,113.896552 C61.0143062,113.497126 61.0143062,113.08908 60.9570815,112.689655 L60.9570815,112.402299 C60.9713877,112.66954 60.9713877,112.939655 60.9570815,113.206897 L60.9570815,112.66092 L60.9570815,112.086207 C60.9570815,110.448276 60.9570815,112.344828 60.7854077,112.258621 L60.7854077,112.057471 C60.7596567,111.666667 60.7596567,111.272989 60.7854077,110.87931 L60.7854077,110.649425 C60.7682403,110.431034 60.7682403,110.20977 60.7854077,109.988506 C60.7854077,109.298851 60.7854077,110.87931 60.6423462,109.988506 L60.6423462,111.913793 L60.6423462,109.758621 L60.6423462,110.62069 C60.6280401,110.468391 60.6280401,110.313218 60.6423462,110.16092 L60.6423462,111.109195 C60.6423462,110.333333 60.6423462,111.511494 60.4706724,110.103448 L60.4706724,111.08046 C60.4706724,109.586207 60.4706724,111.33908 60.3276109,110.649425 C60.3562232,110.295977 60.3562232,109.939655 60.3276109,109.586207 C60.3276109,110.908046 60.3276109,109.298851 60.1845494,109.586207 L60.1845494,110.390805 C60.1444921,110.066092 60.0672389,109.747126 59.9556509,109.442529 L59.9556509,109.270115 L59.9556509,110.333333 L59.9556509,109.183908 C59.9699571,109.393678 59.9699571,109.606322 59.9556509,109.816092 L59.9556509,109.04023 C59.9556509,109.04023 59.9556509,109.95977 59.7839771,109.442529 L59.7839771,111.971264 C59.758226,111.560345 59.758226,111.146552 59.7839771,110.735632 L59.7839771,110.908046 L59.7839771,110.247126 L59.7839771,110.735632 L59.7839771,109.873563 C59.7839771,109.413793 59.7839771,110.103448 59.7839771,109.873563 C59.7610873,109.586207 59.7610873,109.298851 59.7839771,109.011494 L59.7839771,109.844828 C59.7639485,109.520115 59.7639485,109.195402 59.7839771,108.867816 C59.7496423,109.143678 59.7496423,109.425287 59.7839771,109.701149 C59.758226,109.491379 59.758226,109.278736 59.7839771,109.068966 C59.6981402,109.408046 59.6981402,109.764368 59.7839771,110.103448 C59.7839771,110.936782 59.5550787,109.643678 59.4978541,110.103448 L59.4978541,109.844828 C59.4606581,110.112069 59.4606581,110.382184 59.4978541,110.649425 L59.4978541,109.787356 C59.4978541,110.017241 59.4978541,110.333333 59.4978541,109.787356 L59.4978541,109.413793 C59.4978541,109.5 59.4978541,108.724138 59.4978541,109.413793 L59.4978541,108.724138 L59.4978541,109.241379 L59.4978541,108.293103 C59.297568,107.143678 59.4978541,110.275862 59.211731,108.293103 L59.211731,109.528736 L58.9828326,108.063218 L58.9828326,109.097701 C59.0114449,109.614943 59.0114449,110.132184 58.9828326,110.649425 C58.888412,110.08908 58.8311874,109.522989 58.8111588,108.954023 C58.8254649,109.020115 58.8254649,109.08908 58.8111588,109.155172 C58.8369099,108.945402 58.8369099,108.732759 58.8111588,108.522989 L58.8111588,108.867816 C58.7195994,108.58908 58.6623748,108.298851 58.639485,108.005747 C58.602289,108.244253 58.602289,108.485632 58.639485,108.724138 C58.639485,108.235632 58.639485,108.724138 58.4391989,108.408046 L58.4391989,108.982759 L58.4391989,109.787356 L58.4391989,108.982759 C58.4134478,108.591954 58.4134478,108.198276 58.4391989,107.804598 C58.4391989,108.465517 58.2961373,107.402299 58.2389127,107.287356 L58.2389127,107 L58.2389127,107.172414 L58.2389127,107.833333 C58.2188841,107.698276 58.2188841,107.566092 58.2389127,107.431034 C58.2389127,107.890805 58.2389127,108.551724 58.3819742,109.183908 C58.3819742,108.83908 58.3819742,109.557471 58.2389127,108.666667 L58.2389127,107.603448 C58.2389127,107.45977 58.2389127,107.603448 58.2389127,107.603448 L58.2389127,107.373563 C58.0672389,106.568966 58.2389127,108.408046 58.2389127,108.37931 C58.2560801,108.103448 58.2560801,107.824713 58.2389127,107.545977 C58.267525,107.956897 58.267525,108.37069 58.2389127,108.781609 L58.2389127,109.04023 L58.2389127,109.212644 C58.2818312,109.41092 58.2818312,109.617816 58.2389127,109.816092 C58.2474964,109.663793 58.2474964,109.508621 58.2389127,109.356322 C58.2389127,110.275862 58.0672389,108.465517 58.0672389,109.068966 C58.0672389,108.724138 58.0672389,108.12069 57.9241774,107.890805 L57.9241774,107.747126 C57.9527897,108.140805 57.9527897,108.534483 57.9241774,108.925287 L57.9241774,108.436782 L57.9241774,109.442529 L57.9241774,109.097701 C57.8955651,109.422414 57.8955651,109.75 57.9241774,110.074713 C57.7811159,109.04023 57.9241774,110.678161 57.7811159,110.074713 L59.4692418,108.637931 C59.297568,107.890805 59.4692418,109.528736 59.2689557,109.097701 L59.2689557,109.385057 L59.2689557,109.758621 C59.2689557,109.212644 59.2689557,109.011494 59.1258941,108.666667 C59.0801144,109.028736 59.0801144,109.396552 59.1258941,109.758621 L59.1258941,109.011494 L59.1258941,110.448276 L59.1258941,108.982759 L59.1258941,109.270115 L59.1258941,109.5 L59.1258941,110.304598 L59.1258941,110.017241 L59.1258941,111.022989 C58.8397711,109.270115 58.925608,111.195402 58.6680973,109.672414 C58.6909871,109.816092 58.6909871,109.962644 58.6680973,110.103448 L58.6680973,109.902299 L58.6680973,110.936782 L58.6680973,110.103448 C58.4678112,108.235632 58.6680973,110.362069 58.4391989,109.298851 L58.4391989,109.873563 L58.4391989,109.614943 C58.4964235,110.12069 58.4964235,110.632184 58.4391989,111.137931 L58.4391989,110.017241 C58.4391989,110.017241 58.5822604,111.195402 58.4391989,111.425287 C58.4391989,111.022989 58.2961373,110.678161 58.1816881,109.902299 C58.0386266,108.896552 58.1816881,109.902299 58.1816881,109.902299 L58.1816881,109.442529 L58.1816881,110.649425 L58.1816881,110.994253 L58.1816881,111.195402 L58.0386266,110.074713 L58.0386266,111.396552 L58.0386266,109.614943 L58.0386266,110.275862 L58.0386266,110.045977 L58.0386266,111.367816 C57.8097282,109.183908 57.8097282,110.850575 57.5522175,109.155172 C57.5522175,109.988506 57.2947067,108.83908 57.1802575,108.982759 C57.2660944,109.574713 57.323319,110.166667 57.3519313,110.764368 L57.1230329,109.729885 L57.1230329,108.954023 C57.0286123,108.557471 56.962804,108.155172 56.9227468,107.747126 L56.9227468,108.408046 L57.0658083,109.212644 C57.0658083,110.16092 56.8082976,107.747126 56.8369099,108.695402 L56.8369099,108.12069 C56.8369099,108.465517 56.6652361,108.12069 56.8369099,109.557471 L56.8369099,108.752874 C56.8369099,108.637931 56.8369099,110.275862 56.5793991,109.413793 L56.5793991,108.982759 L56.5793991,109.356322 L56.5793991,108.896552 L56.5793991,109.413793 L56.5793991,108.637931 C56.4077253,108.091954 56.5793991,109.844828 56.5793991,110.132184 C56.527897,109.511494 56.4220315,108.896552 56.2646638,108.293103 L56.2646638,108.12069 C56.1216023,107.977011 56.2646638,109.183908 56.09299,109.672414 C55.8640916,108.321839 55.7782546,109.126437 55.5779685,108.37931 C55.6180258,108.752874 55.6180258,109.12931 55.5779685,109.5 L55.5779685,109.212644 C55.5779685,108.091954 55.434907,108.37931 55.3776824,108.350575 L55.5207439,109.873563 C55.2060086,107.689655 55.2918455,110.706897 55.0343348,108.752874 L55.0343348,109.5 L55.0343348,108.695402 C55.0343348,108.494253 55.0343348,108.37931 54.8054363,108.695402 L54.8054363,108.091954 C54.8054363,108.091954 54.9484979,110.448276 54.8054363,110.505747 L54.8054363,109.298851 C54.8054363,109.298851 54.5479256,108.264368 54.5479256,109.298851 C54.5221745,109.109195 54.5221745,108.913793 54.5479256,108.724138 C54.5479256,108.724138 54.3190272,107.91954 54.5479256,109.586207 L54.5479256,109.95977 L54.5479256,109.155172 C54.5965665,109.689655 54.5965665,110.229885 54.5479256,110.764368 L54.5479256,110.333333 L54.5479256,110.649425 L54.5479256,110.16092 L54.5479256,110.965517 C54.5479256,111.568966 54.5479256,110.764368 54.3762518,110.045977 L54.3762518,110.87931 L54.3762518,110.333333 C54.3762518,109.816092 54.3762518,111.281609 54.204578,110.505747 L54.204578,110.017241 C54.204578,109.270115 54.204578,109.155172 54.0615165,108.149425 L54.0615165,109.557471 L54.0615165,109.212644 L54.0615165,109.356322 L54.0615165,109.126437 L54.0615165,108.781609 L54.0615165,110.103448 L54.0615165,110.41954 L54.0615165,111.741379 C54.0615165,110.62069 53.8612303,109.988506 53.8040057,109.298851 C53.6552217,109.899425 53.6065808,110.520115 53.6609442,111.137931 C53.6351931,110.91954 53.6351931,110.695402 53.6609442,110.477011 L53.6609442,110.132184 C53.5979971,110.531609 53.5979971,110.939655 53.6609442,111.33908 L53.6609442,110.534483 L53.6609442,110.218391 C53.4320458,108.522989 53.5178827,112.91954 53.260372,110.764368 L53.260372,111.137931 C53.0314735,110.189655 52.888412,112.057471 52.6595136,110.534483 L52.6595136,111.425287 C52.6595136,112.143678 52.4592275,109.298851 52.4020029,110.678161 L52.4020029,111.252874 L52.4020029,110.936782 L52.4020029,110.793103 L52.4020029,111.568966 C52.4363376,110.936782 52.4363376,110.304598 52.4020029,109.672414 C52.3705293,110.218391 52.3705293,110.764368 52.4020029,111.310345 L52.4020029,112.028736 L52.4020029,112.287356 L52.4020029,115.908046 L52.4020029,115.103448 L52.4020029,115.735632 L52.4020029,115.422414 L52.4020029,114.873563 L52.4020029,116.195402 L52.4020029,114.643678 L52.4020029,115.218391 L52.4020029,115.936782 C52.4306152,115.640805 52.4306152,115.341954 52.4020029,115.048851 L52.4020029,116.109195 L52.4020029,115.048851 L52.4020029,116.770115 C52.4020029,115.422414 52.4020029,116.166667 52.5736767,115.390805 L52.5736767,115.652299 L52.5736767,116.454023 C52.5393419,115.755747 52.5393419,115.057471 52.5736767,114.356322 L52.5736767,116.741379 L52.5736767,115.048851 L52.5736767,116.310345 L52.5736767,115.218391 L52.5736767,116.08046 C52.0987124,116.468391 51.5693848,116.775862 51,117 Z" id="Fill-60" fill="#C4B5B0"></path>
                    <path d="" id="Fill-62" fill="#C4B5B0"></path>
                    <polygon id="Fill-64" fill="#C4B5B0" points="54 115.207 54 115 54 115.177"></polygon>
                    <path d="M64,113 L64,113.3 L64,113 Z" id="Fill-66" fill="#C4B5B0"></path>
                    <path d="M64,113.36 L64,113 L64,113.36 Z" id="Fill-68" fill="#C4B5B0"></path>
                    <path d="M62,112 L62,112.42 C62,112.42 62.03,112.48 62,112" id="Fill-70" fill="#C4B5B0"></path>
                    <polygon id="Fill-72" fill="#C4B5B0" points="60.03 115 60.03 115 60 115"></polygon>
                    <path d="M61,113.053333 C61,113.233333 61,113.053333 61,113.053333 C61,113.053333 61,112.933333 61,113.053333" id="Fill-74" fill="#C4B5B0"></path>
                    <path d="" id="Fill-76" fill="#C4B5B0"></path>
                    <path d="M65,113 L65,113.21 L65,113 Z" id="Fill-78" fill="#C4B5B0"></path>
                    <path d="M64,113.142611 L64,113.592611 L64,113.352611 C64.09,113.802611 64.03,112.602611 64,113.142611" id="Fill-80" fill="#C4B5B0"></path>
                    <path d="M64.0259808,109.897629 L64.0259808,110.137629 C64.0109808,109.858629 64.0109808,109.579629 64.0259808,109.297629 C63.9359808,108.337629 64.1159808,110.017629 64.0259808,109.897629" id="Fill-82" fill="#C4B5B0"></path>
                    <path d="M64.01125,108.63 C64.04125,108.423 64.04125,108.21 64.01125,108 C63.99625,108.21 63.99625,108.42 64.01125,108.63" id="Fill-84" fill="#C4B5B0"></path>
                    <path d="M62.0133333,108.75 L62.0133333,108 C62.0133333,108 61.9833333,108.3 62.0133333,108.75" id="Fill-86" fill="#C4B5B0"></path>
                    <polygon id="Fill-88" fill="#C4B5B0" points="62 113.24 62.09 113.72 62.03 113"></polygon>
                    <polygon id="Fill-90" fill="#C4B5B0" points="61.03 108.12 61.03 108 61 108.27"></polygon>
                    <path d="M59,108.044168 L59,108.974168 C59.12,108.824168 59,107.774168 59,108.044168" id="Fill-92" fill="#C4B5B0"></path>
                    <path d="M58,109.3 L58,109 L58,109.3 Z" id="Fill-94" fill="#C4B5B0"></path>
                    <polygon id="Fill-96" fill="#C4B5B0" points="54.03 108.3 54.03 108 54 108.27"></polygon>
                    <path d="M123.01575,108.24 C122.99475,108.489 122.99475,108.741 123.01575,108.99 L123.01575,108 L123.01575,108.24 Z" id="Fill-98" fill="#C4B5B0"></path>
                    <path d="M123,110.22 C123,109.74 123.183,108.9 123.27,108 L123.033,109.68 C123.003,109.449 123.003,109.218 123.033,108.99 L123.033,109.38 L123.033,109.56 L123,110.22 Z" id="Fill-100" fill="#C4B5B0"></path>
                    <path d="M126,113 L126,113.24 C126.015,113.162 126.015,113.078 126,113" id="Fill-102" fill="#C4B5B0"></path>
                    <path d="M125,112 L125,112.3 C125.03,111.97 125,112.06 125,112" id="Fill-104" fill="#C4B5B0"></path>
                    <path d="M123,108 L123,108.27 L123,108 Z" id="Fill-106" fill="#C4B5B0"></path>
                    <polygon id="Fill-108" fill="#C4B5B0" points="124 113 124 113 124 113.39"></polygon>
                    <polygon id="Fill-110" fill="#C4B5B0" points="124 113.17 124 112 124 112.57"></polygon>
                    <polygon id="Fill-112" fill="#C4B5B0" points="138 110 138.033 110.06 138.183 110.48"></polygon>
                    <path d="M131.028,113.83 L131.028,112 C131.028,112.33 130.965,113.32 131.028,113.83" id="Fill-114" fill="#C4B5B0"></path>
                    <path d="" id="Fill-116" fill="#C4B5B0"></path>
                    <path d="M128,113 C128,113 128,113.18 128,113 C128,113 128,113.15 128,113" id="Fill-118" fill="#C4B5B0"></path>
                    <path d="M128,113.15 L128,113 L128,113.15 Z" id="Fill-120" fill="#C4B5B0"></path>
                    <path d="M135,107.009841 L135,107.759841 C135.033,107.159841 135.033,106.949841 135,107.009841" id="Fill-122" fill="#C4B5B0"></path>
                    <path d="M123,108.36 L123,108 L123,108.36 Z" id="Fill-124" fill="#C4B5B0"></path>
                    <path d="M128,107 C128,107 128.03,107 128,107" id="Fill-126" fill="#C4B5B0"></path>
                    <path d="M133,107.053333 C133,107.053333 133,106.933333 133,107.053333" id="Fill-128" fill="#C4B5B0"></path>
                    <path d="M135.068224,114.86943 L135.068224,114.656076 L135.068224,114.86943 Z M134.224299,108.986956 C134.241121,109.178974 134.241121,109.374041 134.224299,109.566059 C134.204673,109.380137 134.171028,109.197262 134.11215,109.017435 L134.224299,108.986956 Z M134.871963,106.274312 C134.871963,106.274312 135.068224,107.341082 135.180374,107.981144 C135.292523,108.621206 135.009346,107.188686 134.897196,106.609583 C134.897196,106.914374 135.068224,107.950665 134.897196,107.889707 L134.897196,107.43252 L134.897196,108.590727 L134.897196,108.316415 L135.149533,109.840372 C135.149533,109.840372 135.149533,110.541392 135.149533,109.840372 C135.166355,109.666641 135.166355,109.49291 135.149533,109.322226 L135.149533,109.657497 C134.956075,108.621206 135.149533,109.291747 134.984112,108.49929 L134.984112,109.444143 C134.947664,109.026579 134.894393,108.605967 134.813084,108.194498 L134.813084,108.560248 C134.560748,106.975333 134.813084,108.560248 134.560748,106.944853 L134.560748,107.219166 C134.560748,107.76779 134.700935,108.042102 134.785047,108.621206 C134.871963,109.20031 134.308411,106.060958 134.448598,107.43252 C134.448598,108.103061 134.700935,109.413664 134.448598,108.743123 L134.448598,107.584915 C134.448598,107.584915 134.647664,109.261268 134.448598,108.46881 C134.459813,108.295079 134.459813,108.124396 134.448598,107.950665 C134.283178,107.036291 134.448598,108.621206 134.448598,108.621206 L134.308411,107.584915 L134.308411,108.712644 L134.308411,107.76779 C134.308411,108.316415 134.084112,107.76779 133.918692,107.06677 L133.918692,107.981144 C133.907477,107.789126 133.907477,107.594059 133.918692,107.40204 L133.918692,108.316415 C133.899065,108.063438 133.899065,107.807413 133.918692,107.554436 C133.918692,108.316415 133.918692,109.20031 133.72243,108.255456 L133.72243,107.981144 L133.72243,108.986956 C133.582243,108.590727 133.495327,109.444143 133.299065,108.103061 C133.299065,109.383185 133.133645,107.523957 133.299065,109.322226 C133.299065,108.438331 133.299065,108.13354 133.021495,107.523957 L133.021495,108.83456 L133.021495,107.920186 L133.021495,108.773602 L133.021495,107.645874 L133.021495,107.889707 L133.021495,108.590727 C133.021495,108.865039 132.853271,107.950665 132.82243,107.462999 L132.82243,108.255456 C132.808411,108.011623 132.808411,107.76779 132.82243,107.523957 C132.82243,108.46881 132.82243,106.518145 132.82243,107.523957 L132.82243,108.285936 L132.82243,107.950665 L132.82243,107.310603 C132.82243,107.310603 132.657009,107.615394 132.570093,107.615394 C132.595327,108.124396 132.595327,108.633398 132.570093,109.139352 L132.570093,108.164019 C132.58972,108.538912 132.58972,108.916854 132.570093,109.291747 C132.539252,108.804081 132.539252,108.316415 132.570093,107.828748 L132.570093,107.341082 C132.570093,107.981144 132.570093,106.36575 132.570093,107.341082 L132.570093,107.036291 C132.570093,107.036291 132.570093,107.371561 132.376636,107.43252 L132.376636,108.804081 C132.376636,108.529769 132.205607,107.859228 132.152336,107.920186 C132.093458,107.981144 132.152336,108.651685 132.152336,109.169831 L132.152336,107.889707 C132.152336,108.042102 132.152336,108.072582 131.956075,108.712644 C131.96729,108.947333 131.96729,109.178974 131.956075,109.413664 L131.956075,108.712644 C131.956075,109.870851 131.619626,106.426708 131.563551,108.072582 L131.563551,108.925998 L131.563551,107.859228 C131.563551,109.169831 131.392523,107.676353 131.308411,108.529769 C131.308411,106.243833 131.086916,108.712644 130.974766,107.219166 L130.974766,107.76779 L130.974766,107.341082 L130.974766,108.13354 C130.974766,108.438331 130.554206,107.341082 130.35514,106.853416 C130.161682,106.36575 130.35514,109.657497 130.18972,108.346894 L130.18972,107.341082 C130.018692,108.560248 129.878505,107.341082 129.713084,108.316415 C129.690654,108.142684 129.690654,107.968953 129.713084,107.798269 L129.713084,108.346894 L129.713084,107.523957 L129.713084,107.706832 C129.707477,107.615394 129.707477,107.523957 129.713084,107.43252 L129.713084,108.164019 C129.713084,107.76779 129.713084,108.560248 129.713084,108.164019 C129.713084,109.108872 129.713084,107.706832 129.572897,109.047914 L129.572897,108.560248 L129.572897,107.554436 L129.572897,108.560248 C129.572897,106.883895 129.401869,109.870851 129.401869,107.76779 C129.320561,108.298127 129.188785,108.819321 129.01215,109.322226 C129.01215,107.950665 129.01215,109.322226 129.17757,107.737311 C129.17757,108.285936 128.953271,109.474622 128.871963,109.139352 C128.843925,108.865039 128.843925,108.590727 128.871963,108.316415 C128.728972,108.865039 128.675701,108.164019 128.535514,108.925998 L128.535514,108.560248 L128.535514,108.956477 L128.535514,108.46881 C128.535514,109.383185 128.535514,110.358517 128.364486,110.846183 L128.364486,108.13354 C128.339252,108.407852 128.339252,108.682164 128.364486,108.956477 C128.328037,108.673021 128.328037,108.386517 128.364486,108.103061 L128.364486,109.078393 L128.364486,108.316415 L128.364486,109.230789 L128.364486,108.83456 C128.364486,108.865039 128.140187,110.388996 128.086916,109.809893 L128.086916,108.255456 L128.086916,108.590727 L128.086916,109.139352 C128.086916,109.139352 128.086916,109.931809 127.946729,109.566059 L127.946729,109.078393 L127.946729,109.291747 L127.946729,109.748934 L127.946729,110.846183 C127.904673,110.623686 127.904673,110.39814 127.946729,110.175642 L127.946729,110.632829 L127.946729,109.108872 C127.946729,110.084205 127.803738,109.383185 127.72243,110.388996 L127.72243,109.444143 L127.72243,110.206121 L127.72243,109.352705 L127.72243,110.175642 L127.72243,109.870851 C127.72243,109.566059 127.551402,110.358517 127.498131,109.870851 L127.498131,108.621206 C127.498131,108.804081 127.186916,109.962288 127.133645,109.687976 C127.133645,111.303371 127.133645,108.895518 127.133645,109.687976 L127.133645,108.986956 C127.133645,108.712644 126.962617,109.352705 126.825234,109.870851 L126.825234,109.444143 L126.825234,109.047914 L126.825234,109.992767 C126.825234,107.615394 126.485981,111.211933 126.514019,109.261268 L126.514019,108.895518 L126.373832,109.261268 L126.373832,110.236601 C126.396262,110.480434 126.396262,110.724267 126.373832,110.9681 C126.401869,110.462146 126.401869,109.953145 126.373832,109.444143 L126.373832,110.114684 L126.373832,110.693788 L126.373832,110.328038 L126.373832,110.876663 L126.373832,109.840372 C126.373832,109.840372 126.180374,111.364329 126.208411,110.541392 L126.208411,110.114684 L126.208411,109.230789 L126.208411,109.047914 C125.984112,111.150975 126.068224,109.413664 125.897196,110.815704 C125.939252,110.257936 125.939252,109.69712 125.897196,109.139352 C125.885981,108.865039 125.885981,108.590727 125.897196,108.316415 L125.897196,108.804081 C125.885981,108.551104 125.885981,108.295079 125.897196,108.042102 L125.897196,108.925998 C125.759813,109.931809 125.897196,107.676353 125.647664,108.925998 C125.647664,109.474622 125.423364,110.480434 125.311215,110.9681 L125.311215,109.90133 C125.311215,109.90133 125.311215,109.53558 125.311215,109.90133 L125.311215,109.078393 L125.311215,109.718455 L125.448598,108.529769 L125.25514,109.596539 C125.227103,109.230789 125.227103,108.865039 125.25514,108.49929 C125.103738,108.90771 125.019626,109.340514 125,109.779413 L125,110.053726 L125,109.20031 L125,109.809893 L125,109.992767 C125,111.730078 125,109.718455 125.171028,109.809893 L125.030841,111.090017 L125.171028,110.053726 C125.201869,110.459098 125.201869,110.867519 125.171028,111.272891 L125.171028,111.516725 L125.171028,111.730078 L125.171028,111.364329 C125.18785,111.599018 125.18785,111.83066 125.171028,112.065349 C125.171028,112.796848 125.36729,111.120496 125.171028,112.065349 C125.171028,111.66912 125.171028,111.150975 125.423364,110.084205 L125.283178,112.37014 L125.283178,111.425287 C125.3,111.586827 125.3,111.751414 125.283178,111.912953 L125.283178,110.907142 C125.283178,111.760558 125.448598,110.541392 125.283178,112.004391 L125.283178,110.9681 L125.283178,111.455766 C125.257944,111.821516 125.257944,112.187266 125.283178,112.553015 C125.283178,111.181454 125.283178,112.857807 125.283178,112.553015 C125.283178,111.455766 125.283178,112.095828 125.507477,111.730078 C125.465421,112.065349 125.465421,112.40062 125.507477,112.73589 L125.507477,112.949244 C125.507477,111.821516 125.507477,112.03487 125.700935,111.821516 C125.723364,112.226888 125.723364,112.635309 125.700935,113.040682 C125.686916,112.818184 125.686916,112.592638 125.700935,112.37014 L125.700935,113.193077 C125.700935,113.193077 125.871963,112.217745 125.897196,112.796848 C125.897196,112.004391 125.897196,110.632829 126.096262,110.114684 L126.096262,111.425287 L126.096262,111.242412 L126.096262,111.943432 L126.096262,111.425287 L126.096262,112.339661 C126.096262,112.339661 126.096262,112.095828 126.096262,112.339661 C126.11028,112.653596 126.11028,112.97058 126.096262,113.284515 C126.082243,112.988867 126.082243,112.696267 126.096262,112.40062 C126.121495,112.745034 126.121495,113.092496 126.096262,113.43691 C126.129907,113.144311 126.129907,112.845615 126.096262,112.553015 C126.121495,112.775513 126.121495,113.001059 126.096262,113.223556 C126.216822,112.885238 126.272897,112.519488 126.261682,112.156786 C126.43271,111.272891 126.43271,112.674932 126.54486,112.156786 L126.54486,112.461578 C126.631776,112.193361 126.699065,111.919049 126.738318,111.638641 L126.738318,112.553015 C126.738318,112.309182 126.738318,111.973912 126.738318,112.553015 L126.738318,112.918765 C126.738318,112.827328 126.738318,113.680744 126.738318,112.918765 L126.738318,113.650264 L126.738318,113.10164 L126.738318,114.107451 C126.738318,115.357096 127.074766,112.03487 127.049533,114.107451 L127.049533,112.796848 L127.049533,114.381764 C127.049533,114.960867 127.049533,112.918765 127.245794,113.314994 L127.245794,111.638641 C127.299065,112.236032 127.299065,112.839519 127.245794,113.43691 L127.245794,113.650264 C127.217757,113.872762 127.217757,114.098308 127.245794,114.320805 L127.245794,113.955056 C127.276636,114.259847 127.276636,114.564639 127.245794,114.86943 C127.285047,114.616453 127.285047,114.360428 127.245794,114.107451 C127.245794,114.625597 127.245794,114.107451 127.414019,114.473201 L127.414019,113.863618 C127.414019,114.320805 127.414019,113.162598 127.582243,113.010202 L127.582243,113.863618 C127.613084,114.281183 127.613084,114.695699 127.582243,115.113263 C127.582243,114.442722 127.582243,115.600929 127.72243,115.722846 L127.72243,115.997158 L127.72243,115.265659 C127.736449,115.408911 127.736449,115.552163 127.72243,115.692367 L127.72243,113.863618 L127.72243,114.412243 L127.72243,115.539971 C127.72243,115.692367 127.72243,115.539971 127.72243,115.539971 L127.72243,115.783804 C127.72243,116.63722 127.72243,114.686555 127.88785,114.717034 C127.848598,115.021826 127.848598,115.326617 127.88785,115.631409 L127.88785,114.320805 L127.88785,114.046493 L127.88785,113.863618 C127.862617,113.653312 127.862617,113.43691 127.88785,113.223556 C127.896262,113.385096 127.896262,113.549683 127.88785,113.711223 L127.88785,114.046493 L127.88785,115.326617 C127.88785,114.625597 127.88785,116.058116 127.88785,115.326617 C127.862617,114.912101 127.862617,114.491489 127.88785,114.076972 L127.88785,114.595118 L127.88785,113.528348 L127.88785,113.863618 C127.915888,113.519204 127.915888,113.171742 127.88785,112.827328 C127.88785,113.924577 127.88785,112.217745 127.88785,112.827328 L127.88785,114.625597 C127.88785,115.418055 128.058879,113.711223 128.140187,114.16841 L128.140187,113.863618 L128.140187,113.46739 C128.114953,113.863618 128.114953,114.259847 128.140187,114.656076 L128.140187,113.497869 L128.140187,114.290326 C128.140187,114.625597 128.140187,112.583494 128.339252,112.796848 C128.535514,113.010202 128.339252,113.863618 128.339252,114.351285 L128.339252,114.046493 L128.339252,113.80266 C128.314019,113.519204 128.314019,113.2327 128.339252,112.949244 L128.339252,113.254036 C128.356075,112.900478 128.356075,112.540824 128.339252,112.187266 C128.339252,114.076972 128.563551,112.187266 128.588785,113.680744 C128.639252,113.522252 128.703738,113.366808 128.78785,113.223556 L128.78785,113.46739 L128.78785,112.37014 C128.818692,112.66274 128.818692,112.961436 128.78785,113.254036 C128.78785,115.23518 128.78785,112.979723 128.928037,114.137931 C128.928037,114.808472 128.928037,113.406431 129.093458,113.528348 L129.093458,113.833139 C129.11028,113.287563 129.174766,112.748082 129.28972,112.217745 L129.28972,113.406431 L129.28972,111.943432 L129.28972,113.558827 C129.28972,114.625597 129.28972,113.558827 129.28972,113.558827 L129.28972,114.016014 C129.28972,113.863618 129.28972,112.674932 129.460748,112.766369 L129.460748,112.40062 L129.460748,112.187266 L129.460748,113.375952 C129.460748,113.10164 129.460748,112.217745 129.628972,112.004391 L129.628972,113.863618 L129.628972,113.193077 L129.628972,113.406431 C129.628972,112.461578 129.628972,112.004391 129.766355,112.03487 C129.766355,114.351285 129.937383,112.613974 129.990654,114.412243 C129.990654,113.558827 130.217757,114.808472 130.35514,114.656076 L130.35514,112.73589 L130.35514,113.863618 L130.35514,114.686555 L130.35514,115.966679 L130.35514,115.265659 L130.35514,114.412243 C130.35514,113.406431 130.35514,115.966679 130.554206,114.991347 L130.554206,115.57045 C130.554206,115.23518 130.750467,115.57045 130.778505,114.076972 C130.792523,114.360428 130.792523,114.646932 130.778505,114.930388 C130.778505,115.174221 131.030841,113.345473 131.142991,114.259847 L131.142991,114.717034 L131.142991,114.320805 L131.142991,114.808472 L131.142991,114.259847 L131.142991,114.777993 C131.142991,115.357096 131.142991,113.528348 131.36729,113.193077 C131.347664,113.86057 131.41215,114.528064 131.563551,115.174221 L131.563551,115.387575 C131.731776,115.387575 131.757009,114.259847 131.869159,113.711223 C132.009346,115.174221 132.152336,114.320805 132.320561,115.143742 L132.320561,113.955056 L132.320561,114.229368 C132.320561,115.418055 132.457944,115.082784 132.516822,115.113263 L132.516822,113.528348 C132.769159,115.844763 132.769159,112.644453 132.993458,114.717034 L132.993458,113.924577 L132.993458,114.777993 C132.993458,114.991347 133.158879,115.113263 133.245794,114.777993 L133.245794,115.387575 L133.245794,112.827328 L133.245794,114.107451 C133.245794,114.107451 133.554206,115.204701 133.554206,114.107451 L133.554206,114.747513 C133.554206,114.808472 133.806542,115.57045 133.554206,113.833139 L133.554206,113.406431 L133.554206,114.259847 C133.520561,113.702079 133.520561,113.141263 133.554206,112.583494 C133.565421,112.73589 133.565421,112.888286 133.554206,113.040682 L133.554206,112.674932 L133.554206,113.223556 L133.554206,112.339661 C133.554206,111.699599 133.554206,112.553015 133.747664,113.314994 L133.747664,112.431099 L133.747664,112.979723 C133.918692,113.558827 133.747664,112.004391 133.918692,112.827328 L133.918692,113.314994 C134.02243,113.979439 134.098131,114.653028 134.142991,115.326617 L134.142991,113.80266 L134.142991,114.137931 C134.128972,114.220224 134.128972,114.29947 134.142991,114.381764 L134.142991,114.717034 C134.142991,113.894097 134.142991,114.016014 133.971963,113.314994 L133.971963,112.979723 L133.834579,111.608162 L134.308411,114.137931 C134.428972,113.494821 134.428972,112.830375 134.308411,112.187266 C134.308411,112.004391 134.308411,112.644453 134.448598,112.888286 C134.434579,113.019346 134.434579,113.153454 134.448598,113.284515 C134.538318,112.851711 134.538318,112.403668 134.448598,111.973912 C134.591589,112.461578 134.448598,113.010202 134.647664,112.796848 L134.647664,113.132119 C135.124299,114.86943 134.448598,110.26708 135.009346,112.492057 L135.009346,112.126307 C135.43271,113.071161 135.261682,111.090017 135.797196,112.613974 C135.937383,112.918765 135.797196,112.217745 135.797196,111.66912 L136.021495,112.553015 L135.825234,111.516725 C135.825234,110.724267 136.526168,113.650264 136.299065,112.187266 L136.133645,111.608162 C136.133645,111.608162 136.133645,111.211933 136.327103,111.882474 C136.327103,111.882474 136.186916,111.272891 136.327103,111.577683 L136.327103,112.03487 L136.327103,111.211933 C136.498131,111.516725 136.834579,113.040682 137,113.071161 C136.913084,112.513392 136.781308,111.96172 136.61028,111.425287 C136.48972,111.193646 136.397196,110.949812 136.327103,110.693788 L136.327103,110.449955 C135.909346,109.078393 135.485981,107.706832 135.149533,106.792458 L135.348598,107.615394 L135.149533,106.975333 C134.925234,106.36575 135.149533,106.975333 135.149533,107.310603 L134.925234,106.579104 L135.261682,107.889707 C135.15514,107.435568 135.026168,106.987524 134.871963,106.548625 C135.037383,107.158207 135.236449,107.737311 135.320561,108.13354 C135.124299,107.523957 134.984112,107.005812 135.124299,107.554436 L134.925234,106.822937 C134.970093,107.130776 135.023364,107.435568 135.096262,107.737311 C134.897196,106.975333 135.096262,107.950665 134.759813,106.670541 C134.759813,106.975333 134.984112,107.706832 134.984112,107.737311 C134.647664,106.182875 134.984112,107.737311 134.507477,106 C134.813084,107.40204 134.507477,106.640062 134.672897,107.43252 L134.672897,107.188686 C134.580374,106.92047 134.507477,106.646158 134.448598,106.36575 C134.672897,107.554436 134.703738,107.828748 134.813084,108.560248 C134.560748,107.43252 134.560748,107.158207 134.336449,106.091437 L134.647664,107.828748 L134.336449,106.548625 C134.619626,108.011623 134.336449,106.792458 134.535514,107.706832 C134.336449,106.975333 134.25514,106.335271 134.283178,106.792458 L134.871963,106.274312 Z" id="Fill-130" fill="#C4B5B0"></path>
                    <path d="" id="Fill-132" fill="#C4B5B0"></path>
                    <polygon id="Fill-134" fill="#C4B5B0" points="133 107 133.033 107.24 133.033 107.03"></polygon>
                    <path d="M124,108 L124,108.36 L124,108 Z" id="Fill-136" fill="#C4B5B0"></path>
                    <path d="M127,108.066667 C127,108.066667 127,107.916667 127,108.066667" id="Fill-138" fill="#C4B5B0"></path>
                    <path d="M126,109.42 L126,109 L126,109.42 Z" id="Fill-140" fill="#C4B5B0"></path>
                    <path d="" id="Fill-142" fill="#C4B5B0"></path>
                    <path d="M126.013333,109.08 C126.013333,108.9 126.013333,109.08 126.013333,109.08 C126.013333,109.08 125.983333,109.2 126.013333,109.08" id="Fill-144" fill="#C4B5B0"></path>
                    <path d="" id="Fill-146" fill="#C4B5B0"></path>
                    <path d="" id="Fill-148" fill="#C4B5B0"></path>
                    <path d="M123,108.18 L123,108 C123,108 123.033,108 123,108.18" id="Fill-150" fill="#C4B5B0"></path>
                    <path d="M123.04,108.45 L123.04,108 L123.04,108.45 C123.04,107.88 122.95,109.05 123.04,108.45" id="Fill-152" fill="#C4B5B0"></path>
                    <path d="M123.079148,112.24 L123.079148,112 C123.103148,112.279 123.103148,112.561 123.079148,112.84 C122.959148,113.8 122.989148,112.09 123.079148,112.24" id="Fill-154" fill="#C4B5B0"></path>
                    <path d="M124.0225,112 C123.9925,112.219 123.9925,112.441 124.0225,112.66 C124.0405,112.441 124.0405,112.219 124.0225,112" id="Fill-156" fill="#C4B5B0"></path>
                    <path d="M125,113 L125,113.78 C125.033,113.522 125.033,113.258 125,113" id="Fill-158" fill="#C4B5B0"></path>
                    <polygon id="Fill-160" fill="#C4B5B0" points="126.06 108.48 126.06 108 126 108.72"></polygon>
                    <polygon id="Fill-162" fill="#C4B5B0" points="126.03 114.15 126 114.27 126.093 114"></polygon>
                    <path d="M128.034641,113.93 L128.034641,113 C128.004641,113.03 127.974641,114.11 128.034641,113.93" id="Fill-164" fill="#C4B5B0"></path>
                    <path d="M130,113 L130,113.33 L130,113 Z" id="Fill-166" fill="#C4B5B0"></path>
                    <polygon id="Fill-168" fill="#C4B5B0" points="133 114 133 114.33 133.03 114.06"></polygon>
                    <path d="M145.404487,192.397234 C145.14176,191.618075 145.404487,190.694627 144.97142,189.944325 C144.535466,189.19691 144.134158,188.530295 143.784818,187.754022 C143.438364,186.971977 143.268025,186.195703 142.921571,185.47426 C142.575118,184.752816 141.824469,184.201633 141.417386,183.480189 C141.013191,182.758745 140.756238,181.982472 140.320284,181.287 C139.890104,180.594414 139.543651,179.844112 139.052842,179.180384 C138.562033,178.516655 138.126079,177.824069 137.609286,177.189199 C137.086719,176.557214 136.425571,176.034889 135.874133,175.428876 C135.328469,174.822863 134.866531,174.130277 134.286221,173.556008 C133.708799,172.978853 133.047651,172.488271 132.412486,171.937088 C131.774434,171.391677 131.168141,170.869351 130.506993,170.378769 C129.84007,169.888188 129.092308,169.570752 128.396514,169.111914 C127.703608,168.65019 127.129072,168.070149 126.407295,167.669026 C125.685517,167.262132 125.047465,166.742693 124.296816,166.367542 C123.549054,165.995277 122.737776,165.848102 121.990014,165.530667 C121.239365,165.213232 120.402103,165.068943 119.619696,164.783251 C118.843063,164.491788 118.034672,164.376357 117.223394,164.145495 C116.417889,163.914633 115.779838,163.193189 114.974334,162.994071 L112.491418,162.388058 C111.68014,162.212026 110.788022,162.558319 109.95076,162.388058 C109.113498,162.212026 108.39172,161.666614 107.554458,161.551183 C106.717196,161.435752 105.879933,161.721444 105.042671,161.551183 C104.202522,161.375151 103.425889,161.291463 102.588626,161.230862 C101.751364,161.176032 100.942973,161.028858 100.105711,161 L97.6199078,161 L95.1398792,161 L92.6540764,161 C91.8485723,161 90.9795518,161.176032 90.1740478,161.202004 C89.3656566,161.230862 88.4995232,161.202004 87.6911321,161.375151 L85.2053292,161.606013 L82.7253006,161.836875 C81.8880384,161.836875 81.0796472,162.067737 80.2423849,162.183168 C79.4051226,162.298599 78.5678604,162.183168 77.7594692,162.183168 C76.951078,162.183168 76.2293002,162.644892 75.4497802,162.760323 C74.6702601,162.87864 73.9196112,163.224933 73.1400911,163.340364 C72.3605711,163.455795 71.5492928,163.340364 70.7697727,163.539482 C69.9902527,163.741486 69.3002331,164.116637 68.520713,164.29267 C67.741193,164.46293 66.9328018,164.29267 66.1821529,164.552389 C65.4315039,164.809223 64.5942417,164.809223 63.8435927,165.042971 C63.0929438,165.273833 62.5155215,165.963533 61.7937437,166.252111 C61.0719659,166.540688 60.3790592,167.002412 59.6861525,167.348705 C58.9932457,167.694998 57.9827568,167.579567 57.3187212,168.012434 C56.6777825,168.491472 56.0599407,169.002255 55.47097,169.541895 C54.8069344,170.003619 54.226625,170.554802 53.6203316,171.045383 C53.0169254,171.535965 52.5838587,172.257409 52.0035493,172.802821 C51.4290141,173.351118 50.5917519,173.671439 50.0691847,174.245708 C49.5523918,174.822863 49.2636807,175.63088 48.7728717,176.236893 C48.2791757,176.842906 47.6728823,177.422947 47.2138316,178.054931 C46.8471685,178.825433 46.5295863,179.61325 46.2610849,180.424153 C45.9146316,181.145597 45.250596,181.777581 44.9330137,182.614456 C44.6154315,183.451331 44.3267203,184.172775 44.0639932,185.00965 C43.8070403,185.846525 43.5154421,186.596826 43.2844732,187.433701 C43.0563914,188.270576 42.7936642,189.049735 42.5944536,189.918353 C42.3923558,190.7812 42.2191291,191.560359 42.0459024,192.397234 C41.8726757,193.234109 41.6417068,194.042126 41.4973513,194.907859 C41.3501086,195.773591 41.4973513,196.610466 41.2663824,197.447341 C41.0354135,198.284216 40.8910579,199.12109 40.7755734,199.957965 C40.660089,200.79484 40.3973619,201.660573 40.3136356,202.497447 C40.2270223,203.334322 40.3136356,204.200055 40.0826667,205.03693 L39.8228267,207.608155 C39.8228267,208.471002 39.5341156,209.307877 39.4763734,210.144752 C39.4186311,210.981627 39.675584,211.90796 39.4763734,212.741949 C39.2742756,213.578824 39.0433067,214.447443 39.0115484,215.252574 C38.9855644,216.060591 39.0115484,217.041754 39.0115484,217.8238 L39.0115484,220.218993 C40.2270223,220.565286 40.2270223,220.218993 41.4973513,220.218993 C42.7676802,220.218993 42.7676802,220.475827 44.0380092,220.475827 C45.3083382,220.475827 45.3083382,220.648973 46.549796,220.648973 C47.7883668,220.648973 47.820125,220.360396 49.090454,220.360396 C50.360783,220.360396 50.360783,220.158392 51.6311119,220.158392 L54.1428988,220.158392 C55.3843566,220.158392 55.4132277,220.677831 56.6835567,220.677831 C57.9509986,220.677831 57.9250146,220.187249 59.1953435,220.187249 C60.4656725,220.187249 60.4656725,220.449855 61.7360015,220.449855 C63.0034433,220.449855 62.9774593,220.620116 64.2477883,220.620116 C65.5181173,220.620116 65.5181173,220.360396 66.7595751,220.360396 L69.3002331,220.360396 L71.840891,220.360396 L74.3786619,220.360396 L76.8933358,220.360396 L79.4311066,220.360396 L81.9746517,220.360396 L84.4835514,220.360396 C85.7567675,220.360396 85.7567675,220.648973 87.0270965,220.648973 L89.5677544,220.648973 L92.1084124,220.648973 C93.3758542,220.648973 93.3498702,220.187249 94.6201992,220.187249 C95.8905282,220.187249 95.8905282,220.475827 97.1608571,220.475827 C98.428299,220.475827 98.428299,220.187249 99.7015151,220.187249 C100.968957,220.187249 100.968957,220.677831 102.242173,220.677831 C103.509615,220.677831 103.509615,220.187249 104.782831,220.187249 C106.050273,220.187249 106.050273,220.449855 107.294618,220.449855 L109.835276,220.449855 C111.102718,220.449855 111.102718,220.677831 112.375934,220.677831 C113.646263,220.677831 113.646263,220.908693 114.913705,220.908693 L117.428378,220.908693 C118.666949,220.908693 118.698707,220.620116 119.966149,220.620116 L122.506807,220.620116 L125.047465,220.620116 C126.320681,220.620116 126.320681,220.793262 127.59101,220.793262 C128.861339,220.793262 128.861339,220.187249 130.131668,220.187249 L132.672326,220.187249 C133.939768,220.187249 133.939768,220.504685 135.212984,220.504685 C136.480426,220.504685 136.480426,220.244965 137.753642,220.244965 C139.023971,220.244965 139.023971,220.418111 140.291413,220.418111 L142.832071,220.418111 C144.105287,220.418111 144.134158,220.709575 145.404487,220.709575 C146.671929,220.709575 146.761429,221.197271 148,220.908693 C148,220.360396 148,219.234944 147.769031,218.022918 C147.538062,216.810892 147.769031,216.380912 147.769031,215.454578 C147.769031,214.53113 147.162738,213.84143 147.107883,212.943954 C147.047253,212.052249 147.367723,211.215374 147.307093,210.349642 C147.252238,209.481023 146.671929,208.675892 146.617074,207.807274 C146.556444,206.941541 147.021269,206.046951 146.963527,205.210076 C146.905785,204.373201 146.469831,203.510355 146.414976,202.641736 C146.357234,201.776004 146.414976,200.881413 146.414976,200.073396 C146.414976,199.265379 146.094507,198.313073 146.01078,197.533914 C145.924167,196.757641 145.748053,195.715876 145.635456,194.96846 C145.64123,194.105613 145.563278,193.245652 145.404487,192.397234" id="Fill-170" fill="#BCAAA4"></path>
                </g>
            </g>
        </g>
    </g>
</svg>